<svg width="512" height="512" viewBox="0 0 512 512" fill="none" xmlns="http://www.w3.org/2000/svg">
<path d="M161.68 122.04C169.6 122.76 179.68 123.12 186.88 123.12C205.96 123.12 291.28 120.6 310.36 118.8C321.16 117.72 326.2 117 330.16 115.56L346.72 136.8C340.24 141.12 333.04 145.8 326.2 151.2C308.56 164.88 259.6 207 231.52 230.04C248.08 224.64 265.36 222.84 281.56 222.84C341.32 222.84 384.16 258.48 384.16 307.08C384.16 365.04 336.28 402.84 259.96 402.84C211 402.84 181.12 381.6 181.12 351.36C181.12 326.88 203.44 304.56 236.56 304.56C284.44 304.56 308.56 338.4 311.08 374.76L285.16 379.08C283 348.48 265.36 326.52 236.56 326.52C220 326.52 207.4 336.6 207.4 349.2C207.4 366.84 227.2 377.28 255.64 377.28C316.84 377.28 355.36 352.08 355.36 307.08C355.36 271.44 321.52 245.16 274.36 245.16C214.6 245.16 182.2 270.36 136.84 316.8L115.96 295.92C145.84 271.44 192.28 232.56 212.8 214.92C232.96 198.36 278.32 160.56 296.32 144.36C277.24 145.44 205.24 148.32 186.52 149.4C178.24 150.12 170.32 150.48 162.4 151.56L161.68 122.04Z" fill="url(#paint0_linear_201_3)"/>
<defs>
<linearGradient id="paint0_linear_201_3" x1="121.257" y1="67.8208" x2="378.82" y2="458.638" gradientUnits="userSpaceOnUse">
<stop stop-color="#222222"/>
<stop offset="1" stop-color="#888888"/>
</linearGradient>
</defs>
</svg>
