<svg width="512" height="512" viewBox="0 0 512 512" fill="none" xmlns="http://www.w3.org/2000/svg">
<rect x="37" y="37" width="438" height="438" rx="46" fill="url(#paint0_radial_201_3)" stroke="#222222" stroke-width="24"/>
<path d="M268.8 368.15C327.95 359.4 381.15 332.1 380.8 271.9C380.8 244.95 359.45 209.25 312.9 209.25C268.1 209.25 227.85 234.1 193.9 269.45V238.3C235.9 198.75 280.35 184.05 317.1 184.05C365.75 184.05 408.8 218 408.8 272.25C409.15 342.95 357.7 379.7 281.4 394.4L268.8 368.15ZM189.7 199.45C178.5 200.85 140.35 205.75 114.45 209.6L111.3 180.55C119 180.9 125.65 180.9 134.4 180.2C152.95 179.15 196.35 173.9 212.8 168.65L222.95 180.55C217 189.65 207.55 204.7 201.6 214.5L191.1 262.45C175 287.3 142.45 334.55 120.4 365L102.9 341.2C124.6 313.9 171.85 249.5 185.5 226.4L186.9 208.55L189.7 199.45ZM186.2 141.35C186.2 133.3 186.55 124.2 184.8 115.45L218.05 116.5C213.15 139.25 202.3 239.35 202.3 300.95C202.3 332.8 202.3 354.15 203.7 385.3C204.05 391.25 205.1 400 205.45 406.65H175.35C175.7 401.75 176.4 391.6 176.4 386C176.4 352.05 176.75 334.55 177.1 296.05C177.8 265.25 186.2 154.3 186.2 141.35Z" fill="#222222"/>
<defs>
<radialGradient id="paint0_radial_201_3" cx="0" cy="0" r="1" gradientUnits="userSpaceOnUse" gradientTransform="translate(143 117) rotate(51.8065) scale(354.995)">
<stop stop-color="white"/>
<stop offset="1" stop-color="#EEEEEE"/>
</radialGradient>
</defs>
</svg>
