<svg width="512" height="512" viewBox="0 0 512 512" fill="none" xmlns="http://www.w3.org/2000/svg">
<path d="M166.92 128.76C174.4 129.44 183.92 129.78 190.72 129.78C208.74 129.78 289.32 127.4 307.34 125.7C317.54 124.68 322.3 124 326.04 122.64L341.68 142.7C335.56 146.78 328.76 151.2 322.3 156.3C305.64 169.22 259.4 209 232.88 230.76C248.52 225.66 264.84 223.96 280.14 223.96C336.58 223.96 377.04 257.62 377.04 303.52C377.04 358.26 331.82 393.96 259.74 393.96C213.5 393.96 185.28 373.9 185.28 345.34C185.28 322.22 206.36 301.14 237.64 301.14C282.86 301.14 305.64 333.1 308.02 367.44L283.54 371.52C281.5 342.62 264.84 321.88 237.64 321.88C222 321.88 210.1 331.4 210.1 343.3C210.1 359.96 228.8 369.82 255.66 369.82C313.46 369.82 349.84 346.02 349.84 303.52C349.84 269.86 317.88 245.04 273.34 245.04C216.9 245.04 186.3 268.84 143.46 312.7L123.74 292.98C151.96 269.86 195.82 233.14 215.2 216.48C234.24 200.84 277.08 165.14 294.08 149.84C276.06 150.86 208.06 153.58 190.38 154.6C182.56 155.28 175.08 155.62 167.6 156.64L166.92 128.76Z" fill="url(#paint0_linear_201_3)"/>
<defs>
<linearGradient id="paint0_linear_201_3" x1="128.743" y1="78.1109" x2="371.356" y2="446.94" gradientUnits="userSpaceOnUse">
<stop stop-color="#222222"/>
<stop offset="1" stop-color="#888888"/>
</linearGradient>
</defs>
</svg>
