<svg width="512" height="512" viewBox="0 0 512 512" fill="none" xmlns="http://www.w3.org/2000/svg">
<path d="M151.2 119.6C160 120.4 171.2 120.8 179.2 120.8C200.4 120.8 295.2 118 316.4 116C328.4 114.8 334 114 338.4 112.4L356.8 136C349.6 140.8 341.6 146 334 152C314.4 167.2 260 214 228.8 239.6C247.2 233.6 266.4 231.6 284.4 231.6C350.8 231.6 398.4 271.2 398.4 325.2C398.4 389.6 345.2 431.6 260.4 431.6C206 431.6 172.8 408 172.8 374.4C172.8 347.2 197.6 322.4 234.4 322.4C287.6 322.4 314.4 360 317.2 400.4L288.4 405.2C286 371.2 266.4 346.8 234.4 346.8C216 346.8 202 358 202 372C202 391.6 224 403.2 255.6 403.2C323.6 403.2 366.4 375.2 366.4 325.2C366.4 285.6 328.8 256.4 276.4 256.4C210 256.4 174 284.4 123.6 336L100.4 312.8C133.6 285.6 185.2 242.4 208 222.8C230.4 204.4 280.8 162.4 300.8 144.4C279.6 145.6 199.6 148.8 178.8 150C169.6 150.8 160.8 151.2 152 152.4L151.2 119.6Z" fill="url(#paint0_linear_201_3)"/>
<defs>
<linearGradient id="paint0_linear_201_3" x1="106.286" y1="60.1038" x2="392.101" y2="494.187" gradientUnits="userSpaceOnUse">
<stop stop-color="#222222"/>
<stop offset="1" stop-color="#888888"/>
</linearGradient>
</defs>
</svg>
