<svg width="512" height="512" viewBox="0 0 512 512" fill="none" xmlns="http://www.w3.org/2000/svg">
<rect x="37" y="37" width="438" height="438" rx="46" stroke="#333333" stroke-width="24"/>
<path d="M232.4 121.4C231 127.7 229.6 135.4 228.2 142.05C225.75 154.65 221.2 183.35 216.3 205.05C204.4 254.4 179.55 341.55 140 405.25L111.3 394.05C151.2 340.5 179.2 247.05 188.65 204.35C195.3 176.35 199.85 144.85 199.85 117.9L232.4 121.4ZM352.8 161.65C374.5 190 404.95 253.7 416.85 285.9L389.55 298.85C379.4 263.15 351.75 202.25 327.25 173.2L352.8 161.65ZM106.4 198.05C117.25 198.75 126.35 198.4 137.55 198.05C163.8 197.35 234.85 189.65 258.65 189.65C289.8 189.65 315.35 201.55 315.35 248.8C315.35 290.45 309.75 346.1 295.05 375.15C284.2 398.6 266.7 404.55 243.95 404.55C230.65 404.55 213.85 402.1 203 399.3L198.1 370.25C212.8 374.8 231.35 377.25 241.15 377.25C254.1 377.25 264.6 374.45 271.6 359.4C282.8 335.6 288.4 290.1 288.4 252.3C288.4 220.1 273.7 214.15 251.3 214.15C227.85 214.15 162.05 222.2 140.7 224.3C132.65 225.35 118.3 227.1 109.2 228.5L106.4 198.05ZM356.65 110.9C365.4 123.5 378 144.85 385.35 159.2L366.45 167.6C359.45 153.25 347.55 132.25 337.75 118.95L356.65 110.9ZM395.15 96.9C404.6 109.85 417.9 131.9 424.9 144.85L405.65 153.25C398.3 137.85 386.75 117.9 376.6 104.95L395.15 96.9Z" fill="#222222"/>
</svg>
